<mxfile host="app.diagrams.net" agent="Mozilla/5.0 (Windows NT 10.0; Win64; x64) AppleWebKit/537.36 (KHTML, like Gecko) Chrome/136.0.0.0 Safari/537.36" version="27.0.6">
  <diagram name="Page-1" id="AbeWCJr6OQcKY-4KixCJ">
    <mxGraphModel dx="872" dy="439" grid="1" gridSize="10" guides="1" tooltips="1" connect="1" arrows="1" fold="1" page="1" pageScale="1" pageWidth="827" pageHeight="1169" math="0" shadow="0">
      <root>
        <mxCell id="0" />
        <mxCell id="1" parent="0" />
        <mxCell id="BiEYKDr0eQcB2JqTqdwT-1" value="SYSTEM/DATABASE" style="swimlane;whiteSpace=wrap;html=1;" vertex="1" parent="1">
          <mxGeometry x="300" y="40" width="200" height="600" as="geometry" />
        </mxCell>
        <mxCell id="BiEYKDr0eQcB2JqTqdwT-7" value="log incident" style="rounded=1;whiteSpace=wrap;html=1;" vertex="1" parent="BiEYKDr0eQcB2JqTqdwT-1">
          <mxGeometry x="40" y="50" width="120" height="40" as="geometry" />
        </mxCell>
        <mxCell id="BiEYKDr0eQcB2JqTqdwT-18" value="" style="edgeStyle=orthogonalEdgeStyle;rounded=0;orthogonalLoop=1;jettySize=auto;html=1;" edge="1" parent="BiEYKDr0eQcB2JqTqdwT-1" source="BiEYKDr0eQcB2JqTqdwT-15" target="BiEYKDr0eQcB2JqTqdwT-17">
          <mxGeometry relative="1" as="geometry" />
        </mxCell>
        <mxCell id="BiEYKDr0eQcB2JqTqdwT-15" value="update status" style="rounded=1;whiteSpace=wrap;html=1;" vertex="1" parent="BiEYKDr0eQcB2JqTqdwT-1">
          <mxGeometry x="40" y="290" width="120" height="40" as="geometry" />
        </mxCell>
        <mxCell id="BiEYKDr0eQcB2JqTqdwT-17" value="reroute services" style="rounded=1;whiteSpace=wrap;html=1;" vertex="1" parent="BiEYKDr0eQcB2JqTqdwT-1">
          <mxGeometry x="40" y="380" width="120" height="50" as="geometry" />
        </mxCell>
        <mxCell id="BiEYKDr0eQcB2JqTqdwT-2" value="OFFICER" style="swimlane;whiteSpace=wrap;html=1;" vertex="1" parent="1">
          <mxGeometry x="500" y="40" width="200" height="600" as="geometry" />
        </mxCell>
        <mxCell id="BiEYKDr0eQcB2JqTqdwT-11" value="" style="edgeStyle=orthogonalEdgeStyle;rounded=0;orthogonalLoop=1;jettySize=auto;html=1;" edge="1" parent="BiEYKDr0eQcB2JqTqdwT-2" source="BiEYKDr0eQcB2JqTqdwT-9" target="BiEYKDr0eQcB2JqTqdwT-10">
          <mxGeometry relative="1" as="geometry" />
        </mxCell>
        <mxCell id="BiEYKDr0eQcB2JqTqdwT-9" value="receive alert" style="rounded=1;whiteSpace=wrap;html=1;" vertex="1" parent="BiEYKDr0eQcB2JqTqdwT-2">
          <mxGeometry x="40" y="100" width="120" height="40" as="geometry" />
        </mxCell>
        <mxCell id="BiEYKDr0eQcB2JqTqdwT-14" value="" style="edgeStyle=orthogonalEdgeStyle;rounded=0;orthogonalLoop=1;jettySize=auto;html=1;" edge="1" parent="BiEYKDr0eQcB2JqTqdwT-2" source="BiEYKDr0eQcB2JqTqdwT-10" target="BiEYKDr0eQcB2JqTqdwT-13">
          <mxGeometry relative="1" as="geometry" />
        </mxCell>
        <mxCell id="BiEYKDr0eQcB2JqTqdwT-10" value="view incident details" style="rounded=1;whiteSpace=wrap;html=1;" vertex="1" parent="BiEYKDr0eQcB2JqTqdwT-2">
          <mxGeometry x="40" y="180" width="120" height="40" as="geometry" />
        </mxCell>
        <mxCell id="BiEYKDr0eQcB2JqTqdwT-13" value="coordinate response" style="rounded=1;whiteSpace=wrap;html=1;" vertex="1" parent="BiEYKDr0eQcB2JqTqdwT-2">
          <mxGeometry x="40" y="260" width="120" height="40" as="geometry" />
        </mxCell>
        <mxCell id="BiEYKDr0eQcB2JqTqdwT-3" value="DRIVER" style="swimlane;whiteSpace=wrap;html=1;" vertex="1" parent="1">
          <mxGeometry x="100" y="40" width="200" height="600" as="geometry" />
        </mxCell>
        <mxCell id="BiEYKDr0eQcB2JqTqdwT-6" value="" style="edgeStyle=orthogonalEdgeStyle;rounded=0;orthogonalLoop=1;jettySize=auto;html=1;" edge="1" parent="BiEYKDr0eQcB2JqTqdwT-3" source="BiEYKDr0eQcB2JqTqdwT-4" target="BiEYKDr0eQcB2JqTqdwT-5">
          <mxGeometry relative="1" as="geometry" />
        </mxCell>
        <mxCell id="BiEYKDr0eQcB2JqTqdwT-4" value="" style="ellipse;whiteSpace=wrap;html=1;aspect=fixed;" vertex="1" parent="BiEYKDr0eQcB2JqTqdwT-3">
          <mxGeometry x="80" y="30" width="40" height="40" as="geometry" />
        </mxCell>
        <mxCell id="BiEYKDr0eQcB2JqTqdwT-5" value="report incident" style="rounded=1;whiteSpace=wrap;html=1;" vertex="1" parent="BiEYKDr0eQcB2JqTqdwT-3">
          <mxGeometry x="40" y="110" width="120" height="40" as="geometry" />
        </mxCell>
        <mxCell id="BiEYKDr0eQcB2JqTqdwT-22" value="" style="edgeStyle=orthogonalEdgeStyle;rounded=0;orthogonalLoop=1;jettySize=auto;html=1;" edge="1" parent="BiEYKDr0eQcB2JqTqdwT-3" source="BiEYKDr0eQcB2JqTqdwT-19" target="BiEYKDr0eQcB2JqTqdwT-21">
          <mxGeometry relative="1" as="geometry" />
        </mxCell>
        <mxCell id="BiEYKDr0eQcB2JqTqdwT-19" value="continue journey" style="rounded=1;whiteSpace=wrap;html=1;" vertex="1" parent="BiEYKDr0eQcB2JqTqdwT-3">
          <mxGeometry x="40" y="385" width="120" height="40" as="geometry" />
        </mxCell>
        <mxCell id="BiEYKDr0eQcB2JqTqdwT-21" value="" style="ellipse;html=1;shape=endState;fillColor=#000000;strokeColor=#000000;" vertex="1" parent="BiEYKDr0eQcB2JqTqdwT-3">
          <mxGeometry x="82.5" y="490" width="35" height="40" as="geometry" />
        </mxCell>
        <mxCell id="BiEYKDr0eQcB2JqTqdwT-24" value="start" style="text;html=1;align=center;verticalAlign=middle;resizable=0;points=[];autosize=1;strokeColor=none;fillColor=none;" vertex="1" parent="BiEYKDr0eQcB2JqTqdwT-3">
          <mxGeometry x="110" y="40" width="50" height="30" as="geometry" />
        </mxCell>
        <mxCell id="BiEYKDr0eQcB2JqTqdwT-8" value="" style="endArrow=classic;html=1;rounded=0;exitX=1;exitY=0.5;exitDx=0;exitDy=0;entryX=0;entryY=0.5;entryDx=0;entryDy=0;" edge="1" parent="1" source="BiEYKDr0eQcB2JqTqdwT-5" target="BiEYKDr0eQcB2JqTqdwT-7">
          <mxGeometry width="50" height="50" relative="1" as="geometry">
            <mxPoint x="390" y="110" as="sourcePoint" />
            <mxPoint x="440" y="60" as="targetPoint" />
          </mxGeometry>
        </mxCell>
        <mxCell id="BiEYKDr0eQcB2JqTqdwT-12" value="" style="endArrow=classic;html=1;rounded=0;entryX=0;entryY=0.25;entryDx=0;entryDy=0;exitX=1;exitY=0.5;exitDx=0;exitDy=0;" edge="1" parent="1" source="BiEYKDr0eQcB2JqTqdwT-7" target="BiEYKDr0eQcB2JqTqdwT-9">
          <mxGeometry width="50" height="50" relative="1" as="geometry">
            <mxPoint x="390" y="110" as="sourcePoint" />
            <mxPoint x="440" y="60" as="targetPoint" />
          </mxGeometry>
        </mxCell>
        <mxCell id="BiEYKDr0eQcB2JqTqdwT-16" value="" style="endArrow=classic;html=1;rounded=0;exitX=0;exitY=0.5;exitDx=0;exitDy=0;entryX=1;entryY=0.5;entryDx=0;entryDy=0;" edge="1" parent="1" source="BiEYKDr0eQcB2JqTqdwT-13" target="BiEYKDr0eQcB2JqTqdwT-15">
          <mxGeometry width="50" height="50" relative="1" as="geometry">
            <mxPoint x="390" y="350" as="sourcePoint" />
            <mxPoint x="440" y="300" as="targetPoint" />
          </mxGeometry>
        </mxCell>
        <mxCell id="BiEYKDr0eQcB2JqTqdwT-20" value="" style="edgeStyle=orthogonalEdgeStyle;rounded=0;orthogonalLoop=1;jettySize=auto;html=1;" edge="1" parent="1" source="BiEYKDr0eQcB2JqTqdwT-17" target="BiEYKDr0eQcB2JqTqdwT-19">
          <mxGeometry relative="1" as="geometry" />
        </mxCell>
        <mxCell id="BiEYKDr0eQcB2JqTqdwT-23" value="end" style="text;html=1;align=center;verticalAlign=middle;resizable=0;points=[];autosize=1;strokeColor=none;fillColor=none;" vertex="1" parent="1">
          <mxGeometry x="210" y="528" width="40" height="30" as="geometry" />
        </mxCell>
      </root>
    </mxGraphModel>
  </diagram>
</mxfile>
